<?xml version="1.0" encoding="iso-8859-1"?>
<!-- Uploaded to: SVG Repo, www.svgrepo.com, Generator: SVG Repo Mixer Tools -->
<!DOCTYPE svg PUBLIC "-//W3C//DTD SVG 1.1//EN" "http://www.w3.org/Graphics/SVG/1.1/DTD/svg11.dtd">
<svg fill="#f0f8ff" height="800px" width="800px" version="1.1" id="Capa_1" xmlns="http://www.w3.org/2000/svg" xmlns:xlink="http://www.w3.org/1999/xlink" 
	 viewBox="0 0 59.616 59.616" xml:space="preserve">
<path d="M14.901,47.199V21.728l-3-3v29.971v4.761c0,3.395,2.762,6.156,6.156,6.156h23.502c3.055,0,5.59-2.239,6.068-5.161
	l-7.256-7.256H14.901z M29.808,56.395c-1.65,0-2.988-1.338-2.988-2.988c0-1.65,1.338-2.988,2.988-2.988
	c1.65,0,2.988,1.338,2.988,2.988C32.796,55.058,31.458,56.395,29.808,56.395z M58.954,56.125L47.716,44.887V6.728V6.156
	C47.716,2.762,44.954,0,41.559,0H18.057c-3.394,0-6.156,2.762-6.156,6.156v0.572v2.344l-8.41-8.41c-0.781-0.781-2.048-0.781-2.828,0
	c-0.781,0.781-0.781,2.047,0,2.828l55.463,55.463c0.391,0.391,0.902,0.586,1.414,0.586c0.512,0,1.024-0.195,1.414-0.586
	C59.735,58.172,59.735,56.906,58.954,56.125z M14.901,8.229h29.815v33.658L14.901,12.072V8.229z"/>
</svg>